<?xml version="1.0" encoding="iso-8859-1"?>
<!-- Generator: Adobe Illustrator 19.0.1, SVG Export Plug-In . SVG Version: 6.00 Build 0)  -->
<svg version="1.1" xmlns="http://www.w3.org/2000/svg" xmlns:xlink="http://www.w3.org/1999/xlink" x="0px" y="0px"
	 viewBox="0 0 128 128" style="enable-background:new 0 0 128 128;" xml:space="preserve">
<g id="_x31_3">
	<path style="fill:#231F20;" d="M64.159,95.075c-4.703,0-6.958-11.082-10.984-36.367c-1.27-7.978-2.804-17.61-4.016-21.294
		c-1.837,4.135-4.372,16.634-6.124,25.278c-1.911,9.425-3.562,17.565-4.961,20.554c-1,2.137-2.299,2.534-3.234,2.489
		c-3.126-0.148-5.123-5.341-8.671-15.277c-1.085-3.041-2.208-6.186-3.265-8.643c-0.755-1.756-1.278-2.32-1.483-2.489
		c-1.261,0.762-3.531,6.246-5.366,10.68c-0.943,2.276-2.012,4.858-3.184,7.488c-1.034,2.321-2.725,5.364-5.47,4.957
		C2.928,81.796,0.844,70.652,0,64.067l3.397-0.435c0.946,7.363,3.047,14.588,4.461,15.401c0.207-0.13,0.892-0.702,1.886-2.932
		c1.154-2.588,2.213-5.147,3.148-7.404c3.422-8.266,5.307-12.819,8.535-12.841c0.007,0,0.015,0,0.023,0
		c2.321,0,3.678,2.46,4.602,4.606c1.1,2.556,2.241,5.753,3.345,8.844c1.509,4.226,3.953,11.073,5.449,12.742
		c0.04-0.071,0.082-0.156,0.129-0.254c1.226-2.619,2.995-11.345,4.706-19.782c4.641-22.889,6.366-29.087,9.663-29.087
		c2.922,0,3.907,4.46,7.216,25.245c1.688,10.6,4.754,29.865,7.391,33.138c1.198-2.146,2.901-9.166,4.178-14.432
		c3.443-14.194,5.052-19.558,8.319-19.558c3.141,0,4.836,4.796,7.181,11.433C85.3,73.485,88.1,81.41,90.359,81.41
		c1.787-0.27,3.714-10.735,4.641-15.765c1.912-10.373,3.421-18.566,8.008-18.566c4.448,0,6.103,7.924,8.2,17.955
		c1.24,5.934,3.548,16.979,5.89,16.979c1.77-0.066,6.254-9.631,7.494-22.021L128,60.334c-0.787,7.865-4.625,25.104-10.901,25.104
		c-5.126,0-7.033-9.131-9.242-19.702c-1.01-4.832-3.111-14.888-4.85-15.232c-1.785,0.276-3.712,10.736-4.637,15.763
		c-1.912,10.374-3.421,18.568-8.01,18.568c-4.681,0-7.246-7.258-9.961-14.943c-1.109-3.14-2.739-7.752-3.847-8.946
		c-1.528,2.031-3.741,11.151-5.096,16.738C68.267,90.827,66.998,95.075,64.159,95.075z"/>
	<path style="fill:#231F20;" d="M82.102,82.759c-4.606,0-7.552-8.644-10.672-17.795c-1.796-5.266-4.508-13.224-6.254-13.224
		c-1.848,0-4.254,6.488-6.011,11.226c-2.683,7.236-5.218,14.07-9.287,14.07c-4.273,0-7.638-7.04-10.893-13.849
		c-1.567-3.277-3.935-8.231-5.014-8.436c-2.53,0.001-5.725,5.441-8.53,14.553c-1.427,4.641-4.596,7.732-7.906,7.732
		c-0.032,0-0.065,0-0.098-0.001c-1.853-0.033-5.23-1.088-7.02-7.771C7.789,59.45,4.063,57.018,4.025,56.995L5.2,55.036
		c0.183,0.108,4.513,2.771,7.423,13.637c1.025,3.826,2.795,6.042,4.856,6.08c0.019,0,0.038,0,0.056,0
		c2.265,0,4.612-2.505,5.724-6.12c3.347-10.877,6.856-16.164,10.728-16.164c2.298,0,4,3.338,7.058,9.734
		c2.532,5.296,6,12.55,8.834,12.55c2.48,0,5.177-7.272,7.146-12.581c2.53-6.822,4.715-12.715,8.152-12.715
		c3.216,0,5.293,5.613,8.414,14.77c2.338,6.857,5.539,16.249,8.511,16.249c2.724,0,4.842-7.302,6.544-13.169
		c2.168-7.477,4.217-14.538,8.514-14.538c3.973,0,6.302,4.841,8.766,9.968c2.485,5.167,5.054,10.51,9.001,10.51
		c3.697,0,6.108-9.227,6.759-15.042l2.27,0.254c-0.195,1.747-2.106,17.071-9.028,17.071c-5.381,0-8.397-6.27-11.057-11.803
		c-2.051-4.265-4.171-8.675-6.71-8.675c-2.583,0-4.656,7.147-6.322,12.89C88.629,75.562,86.541,82.759,82.102,82.759z"/>
</g>
<g id="Layer_1">
</g>
</svg>
